<?xml version="1.0" encoding="UTF-8"?>
<svg xmlns="http://www.w3.org/2000/svg" xmlns:xlink="http://www.w3.org/1999/xlink" width="525" height="374" viewBox="0 0 525 374">
<defs>
<g>
<g id="glyph-0-0">
<path d="M 6.289062 -4.382812 L 4.664062 -4.089844 C 4.609375 -4.414062 4.484375 -4.65625 4.292969 -4.820312 C 4.097656 -4.984375 3.847656 -5.070312 3.539062 -5.070312 C 3.128906 -5.070312 2.800781 -4.925781 2.558594 -4.644531 C 2.3125 -4.359375 2.191406 -3.886719 2.191406 -3.222656 C 2.191406 -2.484375 2.316406 -1.960938 2.5625 -1.65625 C 2.8125 -1.351562 3.144531 -1.203125 3.5625 -1.203125 C 3.875 -1.203125 4.132812 -1.289062 4.328125 -1.46875 C 4.53125 -1.644531 4.671875 -1.953125 4.75 -2.382812 L 6.367188 -2.109375 C 6.199219 -1.367188 5.878906 -0.804688 5.402344 -0.429688 C 4.925781 -0.0507812 4.285156 0.140625 3.484375 0.140625 C 2.574219 0.140625 1.851562 -0.148438 1.308594 -0.71875 C 0.769531 -1.292969 0.5 -2.089844 0.5 -3.105469 C 0.5 -4.132812 0.769531 -4.933594 1.3125 -5.503906 C 1.855469 -6.078125 2.589844 -6.363281 3.515625 -6.363281 C 4.273438 -6.363281 4.875 -6.199219 5.324219 -5.875 C 5.769531 -5.546875 6.089844 -5.050781 6.289062 -4.382812 Z M 6.289062 -4.382812 "/>
</g>
<g id="glyph-0-1">
<path d="M 0.480469 -3.199219 C 0.480469 -3.746094 0.617188 -4.273438 0.882812 -4.789062 C 1.15625 -5.296875 1.535156 -5.6875 2.03125 -5.960938 C 2.523438 -6.226562 3.078125 -6.363281 3.6875 -6.363281 C 4.625 -6.363281 5.398438 -6.058594 6 -5.445312 C 6.601562 -4.835938 6.902344 -4.0625 6.902344 -3.128906 C 6.902344 -2.1875 6.597656 -1.40625 5.992188 -0.789062 C 5.382812 -0.167969 4.617188 0.140625 3.695312 0.140625 C 3.125 0.140625 2.582031 0.0117188 2.066406 -0.246094 C 1.546875 -0.503906 1.15625 -0.882812 0.882812 -1.378906 C 0.617188 -1.878906 0.480469 -2.484375 0.480469 -3.199219 M 2.167969 -3.109375 C 2.167969 -2.492188 2.3125 -2.023438 2.609375 -1.695312 C 2.898438 -1.367188 3.261719 -1.203125 3.691406 -1.203125 C 4.121094 -1.203125 4.480469 -1.367188 4.773438 -1.695312 C 5.0625 -2.023438 5.210938 -2.496094 5.210938 -3.125 C 5.210938 -3.734375 5.0625 -4.203125 4.773438 -4.53125 C 4.480469 -4.859375 4.121094 -5.023438 3.691406 -5.023438 C 3.261719 -5.023438 2.898438 -4.859375 2.609375 -4.53125 C 2.3125 -4.203125 2.167969 -3.726562 2.167969 -3.109375 Z M 2.167969 -3.109375 "/>
</g>
<g id="glyph-0-2">
<path d="M 0.859375 0 L 0.859375 -8.589844 L 2.507812 -8.589844 L 2.507812 0 Z M 0.859375 0 "/>
</g>
<g id="glyph-0-3">
<path d="M 2.4375 0 L 0.789062 0 L 0.789062 -6.222656 L 2.320312 -6.222656 L 2.320312 -5.335938 C 2.582031 -5.753906 2.816406 -6.03125 3.027344 -6.164062 C 3.234375 -6.296875 3.472656 -6.363281 3.738281 -6.363281 C 4.113281 -6.363281 4.472656 -6.257812 4.820312 -6.054688 L 4.3125 -4.617188 C 4.035156 -4.796875 3.777344 -4.886719 3.539062 -4.886719 C 3.308594 -4.886719 3.113281 -4.824219 2.953125 -4.695312 C 2.792969 -4.570312 2.667969 -4.339844 2.574219 -4.007812 C 2.484375 -3.675781 2.4375 -2.980469 2.4375 -1.921875 Z M 2.4375 0 "/>
</g>
<g id="glyph-0-4">
<path d="M 2.023438 0 L 0.0546875 -6.222656 L 1.652344 -6.222656 L 2.820312 -2.144531 L 3.890625 -6.222656 L 5.476562 -6.222656 L 6.515625 -2.144531 L 7.703125 -6.222656 L 9.328125 -6.222656 L 7.328125 0 L 5.75 0 L 4.675781 -4 L 3.621094 0 Z M 2.023438 0 "/>
</g>
<g id="glyph-0-5">
<path d="M 2.5 -8.589844 L 2.5 -5.429688 C 3.03125 -6.054688 3.667969 -6.363281 4.40625 -6.363281 C 4.785156 -6.363281 5.125 -6.292969 5.429688 -6.152344 C 5.734375 -6.011719 5.964844 -5.832031 6.121094 -5.613281 C 6.273438 -5.394531 6.378906 -5.152344 6.4375 -4.886719 C 6.492188 -4.621094 6.523438 -4.207031 6.523438 -3.648438 L 6.523438 0 L 4.875 0 L 4.875 -3.289062 C 4.875 -3.9375 4.84375 -4.351562 4.78125 -4.53125 C 4.71875 -4.703125 4.609375 -4.84375 4.449219 -4.949219 C 4.292969 -5.050781 4.09375 -5.101562 3.855469 -5.101562 C 3.582031 -5.101562 3.335938 -5.035156 3.125 -4.90625 C 2.90625 -4.769531 2.75 -4.570312 2.652344 -4.304688 C 2.550781 -4.035156 2.5 -3.640625 2.5 -3.117188 L 2.5 0 L 0.855469 0 L 0.855469 -8.589844 Z M 2.5 -8.589844 "/>
</g>
<g id="glyph-0-6">
<path d="M 0.859375 -7.066406 L 0.859375 -8.589844 L 2.507812 -8.589844 L 2.507812 -7.066406 L 0.859375 -7.066406 M 0.859375 0 L 0.859375 -6.222656 L 2.507812 -6.222656 L 2.507812 0 Z M 0.859375 0 "/>
</g>
<g id="glyph-0-7">
<path d="M 3.714844 -6.222656 L 3.714844 -4.910156 L 2.589844 -4.910156 L 2.589844 -2.402344 C 2.589844 -1.894531 2.601562 -1.597656 2.621094 -1.515625 C 2.644531 -1.429688 2.691406 -1.359375 2.769531 -1.304688 C 2.84375 -1.25 2.9375 -1.226562 3.046875 -1.226562 C 3.199219 -1.226562 3.417969 -1.277344 3.710938 -1.382812 L 3.851562 -0.105469 C 3.464844 0.0585938 3.03125 0.140625 2.546875 0.140625 C 2.25 0.140625 1.984375 0.0898438 1.746094 -0.0078125 C 1.507812 -0.109375 1.332031 -0.238281 1.222656 -0.394531 C 1.109375 -0.554688 1.03125 -0.765625 0.992188 -1.039062 C 0.953125 -1.226562 0.9375 -1.613281 0.9375 -2.195312 L 0.9375 -4.910156 L 0.179688 -4.910156 L 0.179688 -6.222656 L 0.9375 -6.222656 L 0.9375 -7.460938 L 2.589844 -8.421875 L 2.589844 -6.222656 Z M 3.714844 -6.222656 "/>
</g>
<g id="glyph-0-8">
<path d="M 4.464844 -1.980469 L 6.105469 -1.703125 C 5.894531 -1.101562 5.5625 -0.644531 5.105469 -0.332031 C 4.652344 -0.015625 4.082031 0.140625 3.398438 0.140625 C 2.316406 0.140625 1.515625 -0.214844 0.996094 -0.921875 C 0.585938 -1.484375 0.382812 -2.203125 0.382812 -3.0625 C 0.382812 -4.09375 0.648438 -4.902344 1.1875 -5.488281 C 1.726562 -6.070312 2.410156 -6.363281 3.234375 -6.363281 C 4.160156 -6.363281 4.890625 -6.058594 5.425781 -5.445312 C 5.960938 -4.835938 6.21875 -3.898438 6.195312 -2.636719 L 2.070312 -2.636719 C 2.078125 -2.148438 2.210938 -1.769531 2.46875 -1.496094 C 2.71875 -1.226562 3.035156 -1.089844 3.414062 -1.089844 C 3.671875 -1.089844 3.890625 -1.160156 4.066406 -1.300781 C 4.242188 -1.441406 4.375 -1.667969 4.464844 -1.980469 M 4.558594 -3.644531 C 4.546875 -4.121094 4.421875 -4.484375 4.1875 -4.730469 C 3.953125 -4.980469 3.667969 -5.101562 3.335938 -5.101562 C 2.972656 -5.101562 2.675781 -4.972656 2.445312 -4.710938 C 2.210938 -4.449219 2.09375 -4.09375 2.097656 -3.644531 Z M 4.558594 -3.644531 "/>
</g>
<g id="glyph-1-0">
<path d="M 0.503906 -2.265625 L 1.558594 -2.40625 C 1.679688 -1.8125 1.886719 -1.378906 2.175781 -1.117188 C 2.46875 -0.851562 2.820312 -0.71875 3.242188 -0.71875 C 3.734375 -0.71875 4.15625 -0.890625 4.496094 -1.234375 C 4.839844 -1.578125 5.007812 -2.003906 5.007812 -2.515625 C 5.007812 -2.996094 4.851562 -3.398438 4.535156 -3.710938 C 4.21875 -4.027344 3.816406 -4.183594 3.328125 -4.183594 C 3.128906 -4.183594 2.878906 -4.144531 2.585938 -4.066406 L 2.703125 -4.992188 C 2.773438 -4.984375 2.828125 -4.980469 2.871094 -4.980469 C 3.320312 -4.980469 3.722656 -5.097656 4.085938 -5.332031 C 4.441406 -5.566406 4.621094 -5.925781 4.625 -6.414062 C 4.621094 -6.804688 4.492188 -7.121094 4.230469 -7.375 C 3.96875 -7.628906 3.628906 -7.757812 3.21875 -7.757812 C 2.804688 -7.757812 2.464844 -7.628906 2.191406 -7.371094 C 1.917969 -7.113281 1.742188 -6.726562 1.664062 -6.210938 L 0.609375 -6.398438 C 0.738281 -7.105469 1.03125 -7.652344 1.488281 -8.042969 C 1.945312 -8.429688 2.515625 -8.625 3.195312 -8.625 C 3.664062 -8.625 4.09375 -8.523438 4.488281 -8.324219 C 4.882812 -8.121094 5.183594 -7.847656 5.394531 -7.5 C 5.601562 -7.152344 5.707031 -6.78125 5.707031 -6.390625 C 5.707031 -6.019531 5.609375 -5.683594 5.40625 -5.378906 C 5.210938 -5.074219 4.914062 -4.832031 4.523438 -4.652344 C 5.03125 -4.535156 5.425781 -4.292969 5.707031 -3.921875 C 5.988281 -3.554688 6.128906 -3.089844 6.128906 -2.539062 C 6.128906 -1.789062 5.855469 -1.152344 5.308594 -0.628906 C 4.761719 -0.109375 4.070312 0.152344 3.234375 0.152344 C 2.480469 0.152344 1.855469 -0.0742188 1.355469 -0.523438 C 0.859375 -0.96875 0.574219 -1.554688 0.503906 -2.265625 Z M 0.503906 -2.265625 "/>
</g>
<g id="glyph-1-1">
<path d="M 3.878906 0 L 3.878906 -2.054688 L 0.152344 -2.054688 L 0.152344 -3.023438 L 4.070312 -8.589844 L 4.933594 -8.589844 L 4.933594 -3.023438 L 6.09375 -3.023438 L 6.09375 -2.054688 L 4.933594 -2.054688 L 4.933594 0 L 3.878906 0 M 3.878906 -3.023438 L 3.878906 -6.898438 L 1.1875 -3.023438 Z M 3.878906 -3.023438 "/>
</g>
<g id="glyph-1-2">
<path d="M 4.46875 0 L 3.414062 0 L 3.414062 -6.71875 C 3.160156 -6.476562 2.828125 -6.234375 2.417969 -5.992188 C 2.003906 -5.75 1.632812 -5.570312 1.304688 -5.449219 L 1.304688 -6.46875 C 1.894531 -6.746094 2.410156 -7.082031 2.851562 -7.476562 C 3.292969 -7.871094 3.605469 -8.253906 3.789062 -8.625 L 4.46875 -8.625 Z M 4.46875 0 "/>
</g>
<g id="glyph-1-3">
<path d="M 0.65625 -1.984375 L 1.671875 -2.078125 C 1.753906 -1.601562 1.917969 -1.257812 2.164062 -1.042969 C 2.402344 -0.828125 2.714844 -0.71875 3.09375 -0.71875 C 3.417969 -0.71875 3.703125 -0.792969 3.945312 -0.945312 C 4.191406 -1.089844 4.390625 -1.289062 4.546875 -1.539062 C 4.703125 -1.785156 4.832031 -2.121094 4.9375 -2.542969 C 5.042969 -2.964844 5.097656 -3.394531 5.097656 -3.832031 C 5.097656 -3.878906 5.09375 -3.949219 5.09375 -4.042969 C 4.882812 -3.707031 4.59375 -3.433594 4.226562 -3.226562 C 3.863281 -3.015625 3.464844 -2.914062 3.039062 -2.914062 C 2.328125 -2.914062 1.726562 -3.171875 1.234375 -3.6875 C 0.742188 -4.203125 0.5 -4.882812 0.5 -5.726562 C 0.5 -6.59375 0.753906 -7.296875 1.269531 -7.828125 C 1.78125 -8.359375 2.425781 -8.625 3.199219 -8.625 C 3.757812 -8.625 4.269531 -8.472656 4.730469 -8.171875 C 5.195312 -7.871094 5.546875 -7.445312 5.785156 -6.886719 C 6.027344 -6.332031 6.148438 -5.523438 6.148438 -4.46875 C 6.148438 -3.371094 6.027344 -2.5 5.789062 -1.847656 C 5.550781 -1.199219 5.195312 -0.703125 4.726562 -0.363281 C 4.253906 -0.0234375 3.703125 0.148438 3.070312 0.148438 C 2.398438 0.148438 1.847656 -0.0390625 1.421875 -0.414062 C 0.996094 -0.785156 0.742188 -1.308594 0.65625 -1.984375 M 4.976562 -5.777344 C 4.972656 -6.382812 4.8125 -6.863281 4.492188 -7.21875 C 4.167969 -7.574219 3.78125 -7.75 3.328125 -7.75 C 2.859375 -7.75 2.449219 -7.558594 2.101562 -7.179688 C 1.753906 -6.792969 1.582031 -6.296875 1.582031 -5.6875 C 1.582031 -5.140625 1.746094 -4.699219 2.078125 -4.355469 C 2.40625 -4.015625 2.8125 -3.84375 3.296875 -3.84375 C 3.785156 -3.84375 4.1875 -4.015625 4.503906 -4.355469 C 4.816406 -4.699219 4.972656 -5.171875 4.976562 -5.777344 Z M 4.976562 -5.777344 "/>
</g>
</g>
</defs>
<rect x="-52.5" y="-37.4" width="630" height="448.8" fill="rgb(100%, 100%, 100%)" fill-opacity="1"/>
<path fill-rule="nonzero" fill="rgb(54.509804%, 27.058824%, 7.45098%)" fill-opacity="1" d="M 184.414062 358.394531 L 189.820312 358.066406 L 195.214844 357.566406 L 200.589844 356.898438 L 205.941406 356.0625 L 211.265625 355.054688 L 216.554688 353.878906 L 221.800781 352.539062 L 227.003906 351.03125 L 232.15625 349.363281 L 237.257812 347.53125 L 242.292969 345.542969 L 247.265625 343.390625 L 252.167969 341.085938 L 256.996094 338.628906 L 261.742188 336.019531 L 262.488281 335.574219 L 257.875 332.816406 L 253.316406 329.886719 L 248.855469 326.820312 L 244.488281 323.609375 L 240.230469 320.265625 L 236.074219 316.789062 L 232.035156 313.183594 L 228.109375 309.449219 L 224.304688 305.59375 L 220.621094 301.621094 L 217.066406 297.535156 L 213.644531 293.335938 L 210.351562 289.03125 L 207.199219 284.628906 L 204.1875 280.125 L 201.320312 275.53125 L 198.597656 270.847656 L 196.027344 266.078125 L 193.605469 261.234375 L 191.339844 256.3125 L 189.230469 251.324219 L 187.277344 246.269531 L 185.488281 241.160156 L 183.859375 235.992188 L 182.394531 230.777344 L 181.09375 225.519531 L 179.964844 220.222656 L 179 214.890625 L 178.203125 209.535156 L 177.574219 204.152344 L 177.117188 198.753906 L 176.832031 193.347656 L 176.71875 187.929688 L 176.773438 182.515625 L 177 177.101562 L 177.398438 171.699219 L 177.96875 166.3125 L 178.707031 160.945312 L 179.613281 155.605469 L 180.6875 150.296875 L 181.929688 145.023438 L 183.335938 139.792969 L 184.910156 134.609375 L 186.644531 129.480469 L 188.542969 124.40625 L 190.597656 119.394531 L 192.808594 114.449219 L 195.179688 109.578125 L 197.699219 104.78125 L 200.367188 100.070312 L 203.1875 95.445312 L 206.148438 90.910156 L 209.253906 86.46875 L 212.496094 82.128906 L 215.875 77.894531 L 219.386719 73.769531 L 223.023438 69.757812 L 226.789062 65.863281 L 230.671875 62.085938 L 234.675781 58.4375 L 238.789062 54.914062 L 243.015625 51.523438 L 247.34375 48.269531 L 251.773438 45.148438 L 256.300781 42.175781 L 260.917969 39.34375 L 262.496094 38.441406 L 260.121094 37.066406 L 255.34375 34.507812 L 250.492188 32.101562 L 245.566406 29.851562 L 240.570312 27.757812 L 235.511719 25.820312 L 230.394531 24.042969 L 225.222656 22.429688 L 220.003906 20.980469 L 214.742188 19.699219 L 209.441406 18.582031 L 204.105469 17.632812 L 198.746094 16.851562 L 193.363281 16.242188 L 187.964844 15.800781 L 182.554688 15.53125 L 177.140625 15.433594 L 171.722656 15.503906 L 166.3125 15.746094 L 160.910156 16.160156 L 155.523438 16.746094 L 150.160156 17.5 L 144.824219 18.421875 L 139.515625 19.511719 L 134.25 20.769531 L 129.023438 22.195312 L 123.84375 23.78125 L 118.71875 25.53125 L 113.648438 27.441406 L 108.644531 29.515625 L 103.707031 31.742188 L 98.839844 34.125 L 94.054688 36.65625 L 89.347656 39.34375 L 84.730469 42.175781 L 80.203125 45.148438 L 75.773438 48.269531 L 71.445312 51.523438 L 67.222656 54.914062 L 63.105469 58.4375 L 59.105469 62.085938 L 55.21875 65.863281 L 51.457031 69.757812 L 47.816406 73.769531 L 44.304688 77.894531 L 40.929688 82.128906 L 37.683594 86.46875 L 34.582031 90.910156 L 31.617188 95.445312 L 28.800781 100.070312 L 26.128906 104.78125 L 23.609375 109.578125 L 21.242188 114.449219 L 19.027344 119.394531 L 16.972656 124.40625 L 15.078125 129.480469 L 13.339844 134.609375 L 11.769531 139.792969 L 10.359375 145.023438 L 9.117188 150.296875 L 8.042969 155.605469 L 7.136719 160.945312 L 6.398438 166.3125 L 5.832031 171.699219 L 5.433594 177.101562 L 5.207031 182.515625 L 5.148438 187.929688 L 5.265625 193.347656 L 5.550781 198.753906 L 6.007812 204.152344 L 6.632812 209.535156 L 7.429688 214.890625 L 8.394531 220.222656 L 9.527344 225.519531 L 10.828125 230.777344 L 12.289062 235.992188 L 13.917969 241.160156 L 15.710938 246.269531 L 17.660156 251.324219 L 19.773438 256.3125 L 22.039062 261.234375 L 24.457031 266.078125 L 27.03125 270.847656 L 29.753906 275.53125 L 32.621094 280.125 L 35.632812 284.628906 L 38.785156 289.03125 L 42.074219 293.335938 L 45.5 297.535156 L 49.054688 301.621094 L 52.734375 305.59375 L 56.539062 309.449219 L 60.464844 313.183594 L 64.507812 316.789062 L 68.660156 320.265625 L 72.921875 323.609375 L 77.285156 326.820312 L 81.75 329.886719 L 86.308594 332.816406 L 90.957031 335.597656 L 95.6875 338.230469 L 100.503906 340.710938 L 105.394531 343.042969 L 110.355469 345.214844 L 115.382812 347.230469 L 120.472656 349.089844 L 125.617188 350.78125 L 130.8125 352.3125 L 136.054688 353.679688 L 141.335938 354.882812 L 146.65625 355.914062 L 152 356.78125 L 157.375 357.476562 L 162.765625 358 L 168.171875 358.355469 L 173.582031 358.539062 L 179 358.554688 Z M 184.414062 358.394531 "/>
<path fill-rule="nonzero" fill="rgb(96.078431%, 96.078431%, 86.27451%)" fill-opacity="1" d="M 355.984375 358.394531 L 361.390625 358.066406 L 366.785156 357.566406 L 372.160156 356.898438 L 377.511719 356.0625 L 382.832031 355.054688 L 388.121094 353.878906 L 393.371094 352.539062 L 398.574219 351.03125 L 403.726562 349.363281 L 408.824219 347.53125 L 413.863281 345.542969 L 418.835938 343.390625 L 423.738281 341.085938 L 428.5625 338.628906 L 433.308594 336.019531 L 437.972656 333.261719 L 442.542969 330.355469 L 447.023438 327.308594 L 451.402344 324.121094 L 455.679688 320.796875 L 459.851562 317.339844 L 463.910156 313.753906 L 467.851562 310.039062 L 471.679688 306.203125 L 475.378906 302.25 L 478.953125 298.179688 L 482.398438 294 L 485.710938 289.710938 L 488.882812 285.324219 L 491.917969 280.835938 L 494.808594 276.253906 L 497.554688 271.585938 L 500.148438 266.832031 L 502.59375 261.996094 L 504.882812 257.085938 L 507.019531 252.109375 L 508.996094 247.066406 L 510.8125 241.960938 L 512.464844 236.804688 L 513.957031 231.597656 L 515.28125 226.34375 L 516.441406 221.050781 L 517.429688 215.726562 L 518.253906 210.375 L 518.90625 204.996094 L 519.390625 199.601562 L 519.703125 194.191406 L 519.84375 188.777344 L 519.8125 183.359375 L 519.613281 177.949219 L 519.242188 172.542969 L 518.703125 167.152344 L 517.988281 161.785156 L 517.109375 156.4375 L 516.058594 151.125 L 514.84375 145.847656 L 513.460938 140.609375 L 511.914062 135.417969 L 510.207031 130.277344 L 508.332031 125.195312 L 506.304688 120.171875 L 504.113281 115.21875 L 501.769531 110.332031 L 499.273438 105.527344 L 496.625 100.800781 L 493.832031 96.160156 L 490.890625 91.613281 L 487.808594 87.15625 L 484.585938 82.800781 L 481.230469 78.550781 L 477.742188 74.410156 L 474.121094 70.378906 L 470.378906 66.464844 L 466.511719 62.667969 L 462.527344 59 L 458.429688 55.457031 L 454.222656 52.042969 L 449.910156 48.765625 L 445.496094 45.628906 L 440.984375 42.628906 L 436.378906 39.777344 L 431.6875 37.066406 L 426.914062 34.507812 L 422.058594 32.101562 L 417.132812 29.851562 L 412.136719 27.757812 L 407.078125 25.820312 L 401.960938 24.042969 L 396.789062 22.429688 L 391.570312 20.980469 L 386.308594 19.699219 L 381.007812 18.582031 L 375.675781 17.632812 L 370.316406 16.851562 L 364.933594 16.242188 L 359.535156 15.800781 L 354.125 15.53125 L 348.707031 15.433594 L 343.292969 15.503906 L 337.878906 15.746094 L 332.480469 16.160156 L 327.09375 16.746094 L 321.730469 17.5 L 316.390625 18.421875 L 311.085938 19.511719 L 305.816406 20.769531 L 300.589844 22.195312 L 295.410156 23.78125 L 290.285156 25.53125 L 285.21875 27.441406 L 280.210938 29.515625 L 275.273438 31.742188 L 270.410156 34.125 L 265.621094 36.65625 L 262.496094 38.441406 L 264.8125 39.777344 L 269.414062 42.628906 L 273.925781 45.628906 L 278.339844 48.765625 L 282.652344 52.042969 L 286.859375 55.457031 L 290.957031 59 L 294.941406 62.667969 L 298.808594 66.464844 L 302.554688 70.378906 L 306.171875 74.410156 L 309.660156 78.550781 L 313.019531 82.800781 L 316.242188 87.15625 L 319.324219 91.613281 L 322.261719 96.160156 L 325.058594 100.800781 L 327.707031 105.527344 L 330.203125 110.332031 L 332.546875 115.21875 L 334.734375 120.171875 L 336.765625 125.195312 L 338.636719 130.277344 L 340.347656 135.417969 L 341.894531 140.609375 L 343.277344 145.847656 L 344.492188 151.125 L 345.539062 156.4375 L 346.421875 161.785156 L 347.132812 167.152344 L 347.675781 172.542969 L 348.046875 177.949219 L 348.246094 183.359375 L 348.273438 188.777344 L 348.132812 194.191406 L 347.820312 199.601562 L 347.339844 204.996094 L 346.683594 210.375 L 345.863281 215.726562 L 344.871094 221.050781 L 343.710938 226.34375 L 342.386719 231.597656 L 340.898438 236.804688 L 339.242188 241.960938 L 337.425781 247.066406 L 335.449219 252.109375 L 333.316406 257.085938 L 331.023438 261.996094 L 328.582031 266.832031 L 325.984375 271.585938 L 323.238281 276.253906 L 320.347656 280.835938 L 317.316406 285.324219 L 314.140625 289.710938 L 310.832031 294 L 307.386719 298.179688 L 303.8125 302.25 L 300.109375 306.203125 L 296.285156 310.039062 L 292.339844 313.753906 L 288.28125 317.339844 L 284.113281 320.796875 L 279.835938 324.121094 L 275.453125 327.308594 L 270.976562 330.355469 L 266.402344 333.261719 L 262.488281 335.574219 L 262.523438 335.597656 L 267.257812 338.230469 L 272.074219 340.710938 L 276.964844 343.042969 L 281.925781 345.214844 L 286.953125 347.230469 L 292.042969 349.089844 L 297.1875 350.78125 L 302.382812 352.3125 L 307.625 353.679688 L 312.90625 354.882812 L 318.222656 355.914062 L 323.570312 356.78125 L 328.941406 357.476562 L 334.332031 358 L 339.738281 358.355469 L 345.152344 358.539062 L 350.570312 358.554688 Z M 355.984375 358.394531 "/>
<path fill-rule="nonzero" fill="rgb(77.254902%, 60.392157%, 45.098039%)" fill-opacity="1" d="M 266.402344 333.261719 L 270.976562 330.355469 L 275.453125 327.308594 L 279.835938 324.121094 L 284.113281 320.796875 L 288.28125 317.339844 L 292.339844 313.753906 L 296.285156 310.039062 L 300.109375 306.203125 L 303.8125 302.25 L 307.386719 298.179688 L 310.832031 294 L 314.140625 289.710938 L 317.316406 285.324219 L 320.347656 280.835938 L 323.238281 276.253906 L 325.984375 271.585938 L 328.582031 266.832031 L 331.023438 261.996094 L 333.316406 257.085938 L 335.449219 252.109375 L 337.425781 247.066406 L 339.242188 241.960938 L 340.898438 236.804688 L 342.386719 231.597656 L 343.710938 226.34375 L 344.871094 221.050781 L 345.863281 215.726562 L 346.683594 210.375 L 347.339844 204.996094 L 347.820312 199.601562 L 348.132812 194.191406 L 348.273438 188.777344 L 348.246094 183.359375 L 348.046875 177.949219 L 347.675781 172.542969 L 347.132812 167.152344 L 346.421875 161.785156 L 345.539062 156.4375 L 344.492188 151.125 L 343.277344 145.847656 L 341.894531 140.609375 L 340.347656 135.417969 L 338.636719 130.277344 L 336.765625 125.195312 L 334.734375 120.171875 L 332.546875 115.21875 L 330.203125 110.332031 L 327.707031 105.527344 L 325.058594 100.800781 L 322.261719 96.160156 L 319.324219 91.613281 L 316.242188 87.15625 L 313.019531 82.800781 L 309.660156 78.550781 L 306.171875 74.410156 L 302.554688 70.378906 L 298.808594 66.464844 L 294.941406 62.667969 L 290.957031 59 L 286.859375 55.457031 L 282.652344 52.042969 L 278.339844 48.765625 L 273.925781 45.628906 L 269.414062 42.628906 L 264.8125 39.777344 L 262.496094 38.441406 L 260.917969 39.34375 L 256.300781 42.175781 L 251.773438 45.148438 L 247.34375 48.269531 L 243.015625 51.523438 L 238.789062 54.914062 L 234.675781 58.4375 L 230.671875 62.085938 L 226.789062 65.863281 L 223.023438 69.757812 L 219.386719 73.769531 L 215.875 77.894531 L 212.496094 82.128906 L 209.253906 86.46875 L 206.148438 90.910156 L 203.1875 95.445312 L 200.367188 100.070312 L 197.699219 104.78125 L 195.179688 109.578125 L 192.808594 114.449219 L 190.597656 119.394531 L 188.542969 124.40625 L 186.644531 129.480469 L 184.910156 134.609375 L 183.335938 139.792969 L 181.929688 145.023438 L 180.6875 150.296875 L 179.613281 155.605469 L 178.707031 160.945312 L 177.96875 166.3125 L 177.398438 171.699219 L 177 177.101562 L 176.773438 182.515625 L 176.71875 187.929688 L 176.832031 193.347656 L 177.117188 198.753906 L 177.574219 204.152344 L 178.203125 209.535156 L 179 214.890625 L 179.964844 220.222656 L 181.09375 225.519531 L 182.394531 230.777344 L 183.859375 235.992188 L 185.488281 241.160156 L 187.277344 246.269531 L 189.230469 251.324219 L 191.339844 256.3125 L 193.605469 261.234375 L 196.027344 266.078125 L 198.597656 270.847656 L 201.320312 275.53125 L 204.1875 280.125 L 207.199219 284.628906 L 210.351562 289.03125 L 213.644531 293.335938 L 217.066406 297.535156 L 220.621094 301.621094 L 224.304688 305.59375 L 228.109375 309.449219 L 232.035156 313.183594 L 236.074219 316.789062 L 240.230469 320.265625 L 244.488281 323.609375 L 248.855469 326.820312 L 253.316406 329.886719 L 257.875 332.816406 L 262.488281 335.574219 Z M 266.402344 333.261719 "/>
<path fill="none" stroke-width="0.75" stroke-linecap="round" stroke-linejoin="round" stroke="rgb(0%, 0%, 0%)" stroke-opacity="1" stroke-miterlimit="10" d="M 269.414062 42.628906 L 264.8125 39.777344 L 260.121094 37.066406 L 255.34375 34.507812 L 250.492188 32.101562 L 245.566406 29.851562 L 240.570312 27.757812 L 235.511719 25.820312 L 230.394531 24.042969 L 225.222656 22.429688 L 220.003906 20.980469 L 214.742188 19.699219 L 209.441406 18.582031 L 204.105469 17.632812 L 198.746094 16.851562 L 193.363281 16.242188 L 187.964844 15.800781 L 182.554688 15.53125 L 177.140625 15.433594 L 171.722656 15.503906 L 166.3125 15.746094 L 160.910156 16.160156 L 155.523438 16.746094 L 150.160156 17.5 L 144.824219 18.421875 L 139.515625 19.511719 L 134.25 20.769531 L 129.023438 22.195312 L 123.84375 23.78125 L 118.71875 25.53125 L 113.648438 27.441406 L 108.644531 29.515625 L 103.707031 31.742188 L 98.839844 34.125 L 94.054688 36.65625 L 89.347656 39.34375 L 84.730469 42.175781 L 80.203125 45.148438 L 75.773438 48.269531 L 71.445312 51.523438 L 67.222656 54.914062 L 63.105469 58.4375 L 59.105469 62.085938 L 55.21875 65.863281 L 51.457031 69.757812 L 47.816406 73.769531 L 44.304688 77.894531 L 40.929688 82.128906 L 37.683594 86.46875 L 34.582031 90.910156 L 31.617188 95.445312 L 28.800781 100.070312 L 26.128906 104.78125 L 23.609375 109.578125 L 21.242188 114.449219 L 19.027344 119.394531 L 16.972656 124.40625 L 15.078125 129.480469 L 13.339844 134.609375 L 11.769531 139.792969 L 10.359375 145.023438 L 9.117188 150.296875 L 8.042969 155.605469 L 7.136719 160.945312 L 6.398438 166.3125 L 5.832031 171.699219 L 5.433594 177.101562 L 5.207031 182.515625 L 5.148438 187.929688 L 5.265625 193.347656 L 5.550781 198.753906 L 6.007812 204.152344 L 6.632812 209.535156 L 7.429688 214.890625 L 8.394531 220.222656 L 9.527344 225.519531 L 10.828125 230.777344 L 12.289062 235.992188 L 13.917969 241.160156 L 15.710938 246.269531 L 17.660156 251.324219 L 19.773438 256.3125 L 22.039062 261.234375 L 24.457031 266.078125 L 27.03125 270.847656 L 29.753906 275.53125 L 32.621094 280.125 L 35.632812 284.628906 L 38.785156 289.03125 L 42.074219 293.335938 L 45.5 297.535156 L 49.054688 301.621094 L 52.734375 305.59375 L 56.539062 309.449219 L 60.464844 313.183594 L 64.507812 316.789062 L 68.660156 320.265625 L 72.921875 323.609375 L 77.285156 326.820312 L 81.75 329.886719 L 86.308594 332.816406 L 90.957031 335.597656 L 95.6875 338.230469 L 100.503906 340.710938 L 105.394531 343.042969 L 110.355469 345.214844 L 115.382812 347.230469 L 120.472656 349.089844 L 125.617188 350.78125 L 130.8125 352.3125 L 136.054688 353.679688 L 141.335938 354.882812 L 146.65625 355.914062 L 152 356.78125 L 157.375 357.476562 L 162.765625 358 L 168.171875 358.355469 L 173.582031 358.539062 L 179 358.554688 L 184.414062 358.394531 L 189.820312 358.066406 L 195.214844 357.566406 L 200.589844 356.898438 L 205.941406 356.0625 L 211.265625 355.054688 L 216.554688 353.878906 L 221.800781 352.539062 L 227.003906 351.03125 L 232.15625 349.363281 L 237.257812 347.53125 L 242.292969 345.542969 L 247.265625 343.390625 L 252.167969 341.085938 L 256.996094 338.628906 L 261.742188 336.019531 L 266.402344 333.261719 L 270.976562 330.355469 L 275.453125 327.308594 L 279.835938 324.121094 L 284.113281 320.796875 L 288.28125 317.339844 L 292.339844 313.753906 L 296.285156 310.039062 L 300.109375 306.203125 L 303.8125 302.25 L 307.386719 298.179688 L 310.832031 294 L 314.140625 289.710938 L 317.316406 285.324219 L 320.347656 280.835938 L 323.238281 276.253906 L 325.984375 271.585938 L 328.582031 266.832031 L 331.023438 261.996094 L 333.316406 257.085938 L 335.449219 252.109375 L 337.425781 247.066406 L 339.242188 241.960938 L 340.898438 236.804688 L 342.386719 231.597656 L 343.710938 226.34375 L 344.871094 221.050781 L 345.863281 215.726562 L 346.683594 210.375 L 347.339844 204.996094 L 347.820312 199.601562 L 348.132812 194.191406 L 348.273438 188.777344 L 348.246094 183.359375 L 348.046875 177.949219 L 347.675781 172.542969 L 347.132812 167.152344 L 346.421875 161.785156 L 345.539062 156.4375 L 344.492188 151.125 L 343.277344 145.847656 L 341.894531 140.609375 L 340.347656 135.417969 L 338.636719 130.277344 L 336.765625 125.195312 L 334.734375 120.171875 L 332.546875 115.21875 L 330.203125 110.332031 L 327.707031 105.527344 L 325.058594 100.800781 L 322.261719 96.160156 L 319.324219 91.613281 L 316.242188 87.15625 L 313.019531 82.800781 L 309.660156 78.550781 L 306.171875 74.410156 L 302.554688 70.378906 L 298.808594 66.464844 L 294.941406 62.667969 L 290.957031 59 L 286.859375 55.457031 L 282.652344 52.042969 L 278.339844 48.765625 L 273.925781 45.628906 L 269.414062 42.628906 "/>
<path fill="none" stroke-width="0.75" stroke-linecap="round" stroke-linejoin="round" stroke="rgb(0%, 0%, 0%)" stroke-opacity="1" stroke-miterlimit="10" d="M 440.984375 42.628906 L 436.378906 39.777344 L 431.6875 37.066406 L 426.914062 34.507812 L 422.058594 32.101562 L 417.132812 29.851562 L 412.136719 27.757812 L 407.078125 25.820312 L 401.960938 24.042969 L 396.789062 22.429688 L 391.570312 20.980469 L 386.308594 19.699219 L 381.007812 18.582031 L 375.675781 17.632812 L 370.316406 16.851562 L 364.933594 16.242188 L 359.535156 15.800781 L 354.125 15.53125 L 348.707031 15.433594 L 343.292969 15.503906 L 337.878906 15.746094 L 332.480469 16.160156 L 327.09375 16.746094 L 321.730469 17.5 L 316.390625 18.421875 L 311.085938 19.511719 L 305.816406 20.769531 L 300.589844 22.195312 L 295.410156 23.78125 L 290.285156 25.53125 L 285.21875 27.441406 L 280.210938 29.515625 L 275.273438 31.742188 L 270.410156 34.125 L 265.621094 36.65625 L 260.917969 39.34375 L 256.300781 42.175781 L 251.773438 45.148438 L 247.34375 48.269531 L 243.015625 51.523438 L 238.789062 54.914062 L 234.675781 58.4375 L 230.671875 62.085938 L 226.789062 65.863281 L 223.023438 69.757812 L 219.386719 73.769531 L 215.875 77.894531 L 212.496094 82.128906 L 209.253906 86.46875 L 206.148438 90.910156 L 203.1875 95.445312 L 200.367188 100.070312 L 197.699219 104.78125 L 195.179688 109.578125 L 192.808594 114.449219 L 190.597656 119.394531 L 188.542969 124.40625 L 186.644531 129.480469 L 184.910156 134.609375 L 183.335938 139.792969 L 181.929688 145.023438 L 180.6875 150.296875 L 179.613281 155.605469 L 178.707031 160.945312 L 177.96875 166.3125 L 177.398438 171.699219 L 177 177.101562 L 176.773438 182.515625 L 176.71875 187.929688 L 176.832031 193.347656 L 177.117188 198.753906 L 177.574219 204.152344 L 178.203125 209.535156 L 179 214.890625 L 179.964844 220.222656 L 181.09375 225.519531 L 182.394531 230.777344 L 183.859375 235.992188 L 185.488281 241.160156 L 187.277344 246.269531 L 189.230469 251.324219 L 191.339844 256.3125 L 193.605469 261.234375 L 196.027344 266.078125 L 198.597656 270.847656 L 201.320312 275.53125 L 204.1875 280.125 L 207.199219 284.628906 L 210.351562 289.03125 L 213.644531 293.335938 L 217.066406 297.535156 L 220.621094 301.621094 L 224.304688 305.59375 L 228.109375 309.449219 L 232.035156 313.183594 L 236.074219 316.789062 L 240.230469 320.265625 L 244.488281 323.609375 L 248.855469 326.820312 L 253.316406 329.886719 L 257.875 332.816406 L 262.523438 335.597656 L 267.257812 338.230469 L 272.074219 340.710938 L 276.964844 343.042969 L 281.925781 345.214844 L 286.953125 347.230469 L 292.042969 349.089844 L 297.1875 350.78125 L 302.382812 352.3125 L 307.625 353.679688 L 312.90625 354.882812 L 318.222656 355.914062 L 323.570312 356.78125 L 328.941406 357.476562 L 334.332031 358 L 339.738281 358.355469 L 345.152344 358.539062 L 350.570312 358.554688 L 355.984375 358.394531 L 361.390625 358.066406 L 366.785156 357.566406 L 372.160156 356.898438 L 377.511719 356.0625 L 382.832031 355.054688 L 388.121094 353.878906 L 393.371094 352.539062 L 398.574219 351.03125 L 403.726562 349.363281 L 408.824219 347.53125 L 413.863281 345.542969 L 418.835938 343.390625 L 423.738281 341.085938 L 428.5625 338.628906 L 433.308594 336.019531 L 437.972656 333.261719 L 442.542969 330.355469 L 447.023438 327.308594 L 451.402344 324.121094 L 455.679688 320.796875 L 459.851562 317.339844 L 463.910156 313.753906 L 467.851562 310.039062 L 471.679688 306.203125 L 475.378906 302.25 L 478.953125 298.179688 L 482.398438 294 L 485.710938 289.710938 L 488.882812 285.324219 L 491.917969 280.835938 L 494.808594 276.253906 L 497.554688 271.585938 L 500.148438 266.832031 L 502.59375 261.996094 L 504.882812 257.085938 L 507.019531 252.109375 L 508.996094 247.066406 L 510.8125 241.960938 L 512.464844 236.804688 L 513.957031 231.597656 L 515.28125 226.34375 L 516.441406 221.050781 L 517.429688 215.726562 L 518.253906 210.375 L 518.90625 204.996094 L 519.390625 199.601562 L 519.703125 194.191406 L 519.84375 188.777344 L 519.8125 183.359375 L 519.613281 177.949219 L 519.242188 172.542969 L 518.703125 167.152344 L 517.988281 161.785156 L 517.109375 156.4375 L 516.058594 151.125 L 514.84375 145.847656 L 513.460938 140.609375 L 511.914062 135.417969 L 510.207031 130.277344 L 508.332031 125.195312 L 506.304688 120.171875 L 504.113281 115.21875 L 501.769531 110.332031 L 499.273438 105.527344 L 496.625 100.800781 L 493.832031 96.160156 L 490.890625 91.613281 L 487.808594 87.15625 L 484.585938 82.800781 L 481.230469 78.550781 L 477.742188 74.410156 L 474.121094 70.378906 L 470.378906 66.464844 L 466.511719 62.667969 L 462.527344 59 L 458.429688 55.457031 L 454.222656 52.042969 L 449.910156 48.765625 L 445.496094 45.628906 L 440.984375 42.628906 "/>
<g fill="rgb(0%, 0%, 0%)" fill-opacity="1">
<use xlink:href="#glyph-0-0" x="76.933594" y="165.039062"/>
<use xlink:href="#glyph-0-1" x="83.607422" y="165.039062"/>
<use xlink:href="#glyph-0-2" x="90.9375" y="165.039062"/>
<use xlink:href="#glyph-0-1" x="94.271484" y="165.039062"/>
<use xlink:href="#glyph-0-3" x="101.601562" y="165.039062"/>
</g>
<g fill="rgb(0%, 0%, 0%)" fill-opacity="1">
<use xlink:href="#glyph-1-0" x="81.589844" y="180.390625"/>
<use xlink:href="#glyph-1-1" x="88.263672" y="180.390625"/>
<use xlink:href="#glyph-1-2" x="94.9375" y="180.390625"/>
</g>
<g fill="rgb(0%, 0%, 0%)" fill-opacity="1">
<use xlink:href="#glyph-0-4" x="418.050781" y="165.035156"/>
<use xlink:href="#glyph-0-5" x="427.384766" y="165.035156"/>
<use xlink:href="#glyph-0-6" x="434.714844" y="165.035156"/>
<use xlink:href="#glyph-0-7" x="438.048828" y="165.035156"/>
<use xlink:href="#glyph-0-8" x="442.044922" y="165.035156"/>
</g>
<g fill="rgb(0%, 0%, 0%)" fill-opacity="1">
<use xlink:href="#glyph-1-2" x="423.375" y="180.386719"/>
<use xlink:href="#glyph-1-3" x="430.048828" y="180.386719"/>
<use xlink:href="#glyph-1-3" x="436.722656" y="180.386719"/>
</g>
<g fill="rgb(0%, 0%, 0%)" fill-opacity="1">
<use xlink:href="#glyph-1-2" x="252.484375" y="191.804688"/>
<use xlink:href="#glyph-1-3" x="259.158203" y="191.804688"/>
<use xlink:href="#glyph-1-3" x="265.832031" y="191.804688"/>
</g>
</svg>
